<svg width="667" height="153" viewBox="0 0 667 153" fill="none" xmlns="http://www.w3.org/2000/svg">
<rect x="33" width="634" height="153" rx="70" fill="#8B2C07"/>
<rect x="38.8477" y="6" width="611.308" height="132" rx="64" fill="#B4400E" stroke="#D5661C" stroke-width="12"/>
<path d="M112.063 64.1504C111.238 60.8496 108.509 58.9453 104.446 58.9453C98.0352 58.9453 94.29 63.7695 94.29 71.958C94.29 80.21 97.7812 85.0977 104.383 85.0977C110.127 85.0977 113.047 82.3999 113.143 78.1152H104.637V69.4824H124.822V75.7666C124.822 88.2715 116.253 95.6348 104.256 95.6348C90.9258 95.6348 81.8486 86.6211 81.8486 72.085C81.8486 56.9775 91.8145 48.4082 104.192 48.4082C114.983 48.4082 123.299 54.9463 124.314 64.1504H112.063ZM144.005 95H130.929L146.227 49.043H162.667L177.901 95H164.889L162.159 85.9863H146.734L144.005 95ZM149.527 76.8457H159.366L154.605 61.4209H154.225L149.527 76.8457ZM185.722 49.043H200.766L211.684 75.7666H212.255L223.173 49.043H238.217V95H226.41V67.959H226.029L215.556 94.6826H208.319L197.909 67.7686H197.528V95H185.722V49.043ZM247.688 95V49.043H280.505V58.8184H259.748V67.1338H278.791V76.9092H259.748V85.2246H280.441V95H247.688ZM332.264 63.2617C332.01 60.1514 329.979 58.374 325.853 58.374C321.854 58.374 320.076 59.8975 320.013 62.0557C319.949 64.4043 322.107 65.7373 326.36 66.626L330.169 67.5146C340.071 69.6094 344.451 74.4336 344.515 81.4795C344.451 90.4932 337.532 95.5713 325.916 95.5713C314.046 95.5713 306.365 90.3662 306.238 79.0674H317.791C317.981 83.3203 320.965 85.6055 325.726 85.6055C329.852 85.6055 332.073 83.8916 332.137 81.4795C332.073 79.2578 330.232 77.9883 325.091 76.8457L320.457 75.8301C312.396 74.0527 307.444 70.0537 307.444 62.9443C307.381 54.248 315.062 48.4082 325.853 48.4082C336.897 48.4082 343.816 54.3115 343.88 63.2617H332.264ZM351.383 58.8184V49.043H390.992V58.8184H377.154V95H365.221V58.8184H351.383ZM404.652 95H391.576L406.874 49.043H423.314L438.549 95H425.536L422.807 85.9863H407.382L404.652 95ZM410.175 76.8457H420.014L415.253 61.4209H414.872L410.175 76.8457ZM446.369 95V49.043H465.92C476.203 49.043 482.932 54.8828 482.932 64.5947C482.932 70.9424 480.012 75.4492 475.061 77.7979L484.455 95H471.315L463.19 79.7021H458.43V95H446.369ZM458.43 70.2441H463.127C467.697 70.2441 470.3 68.5938 470.3 64.5947C470.3 60.5322 467.697 58.6914 463.127 58.6914H458.43V70.2441ZM490.308 58.8184V49.043H529.917V58.8184H516.079V95H504.146V58.8184H490.308Z" fill="#FFF1D7"/>
<path d="M572 53.578L596.44 71.8277L570.895 90.7481" stroke="#FFF1D7" stroke-width="10" stroke-linecap="round"/>
</svg>
